<?xml version="1.0" standalone="no"?>
<!DOCTYPE svg PUBLIC "-//W3C//DTD SVG 20010904//EN"
 "http://www.w3.org/TR/2001/REC-SVG-20010904/DTD/svg10.dtd">
<svg version="1.0" xmlns="http://www.w3.org/2000/svg"
 width="500.000000pt" height="500.000000pt" viewBox="0 0 500.000000 500.000000"
 preserveAspectRatio="xMidYMid meet">
<metadata>
Created by potrace 1.14, written by Peter Selinger 2001-2017
</metadata>
<g transform="translate(0.000000,500.000000) scale(0.100000,-0.100000)"
fill="#000000" stroke="none">
<path d="M2443 4993 c9 -2 23 -2 30 0 6 3 -1 5 -18 5 -16 0 -22 -2 -12 -5z"/>
<path d="M2540 4986 c0 -12 24 -16 123 -19 113 -4 183 -13 282 -36 22 -5 76
-16 120 -26 44 -9 105 -25 135 -35 30 -10 67 -21 82 -24 15 -3 60 -21 100 -40
40 -18 83 -37 96 -41 13 -4 22 -9 19 -11 -2 -3 -71 17 -153 44 -82 27 -207 63
-279 80 -71 17 -152 36 -180 43 -27 6 -72 11 -100 10 -28 0 -45 3 -37 7 6 5
-66 13 -160 19 -175 12 -327 5 -394 -17 -17 -6 -53 -11 -80 -11 -27 -1 -103
-12 -169 -25 -142 -27 -218 -53 -365 -121 -30 -14 -71 -31 -92 -38 -104 -38
-407 -210 -474 -270 -83 -74 -146 -131 -181 -165 -20 -19 -30 -26 -22 -15 13
18 13 19 -3 6 -10 -7 -16 -17 -13 -21 3 -4 -3 -14 -12 -21 -14 -12 -16 -12 -8
1 18 33 -52 -40 -129 -135 -118 -144 -217 -272 -253 -330 -54 -88 -166 -309
-169 -337 -2 -14 -15 -52 -29 -85 -59 -130 -118 -358 -134 -513 -17 -153 -17
-170 -9 -170 4 0 9 -21 9 -47 1 -27 5 2 10 62 8 116 41 309 65 385 8 25 31 96
50 159 63 199 157 404 240 522 19 27 34 52 34 55 0 7 109 148 157 204 17 19
61 70 98 113 61 71 150 152 290 263 65 52 193 144 201 144 3 0 24 13 47 28 23
16 65 39 92 51 28 12 62 29 76 36 14 8 59 28 100 44 41 16 110 45 154 65 44
20 87 36 96 36 9 0 38 10 65 22 34 14 68 21 109 20 33 0 83 6 110 13 98 28
240 41 410 40 232 -2 374 -18 492 -54 54 -17 116 -34 138 -40 22 -5 55 -14 73
-20 22 -7 30 -7 26 1 -9 15 28 1 107 -38 37 -19 70 -34 74 -34 22 0 377 -178
427 -215 34 -25 68 -45 75 -45 7 0 38 -24 70 -52 260 -243 272 -254 368 -368
101 -119 149 -184 116 -155 -22 18 -22 17 4 -23 16 -24 31 -38 34 -33 4 6 19
-10 35 -35 16 -25 26 -47 23 -50 -3 -3 -13 8 -21 24 -9 17 -20 34 -26 37 -5 3
0 -10 11 -30 12 -20 28 -39 35 -42 8 -3 11 -9 8 -14 -3 -5 1 -6 8 -4 8 3 23
-7 34 -22 30 -41 39 -62 14 -33 l-21 25 21 -43 c11 -24 28 -46 36 -49 8 -3 13
-12 10 -19 -3 -8 -1 -14 4 -14 11 0 44 -61 54 -100 l7 -25 -15 25 c-9 14 -15
22 -16 19 0 -13 52 -124 62 -130 6 -4 8 -11 4 -17 -3 -5 3 -36 14 -68 l19 -59
-22 29 c-12 16 -32 41 -45 55 l-22 26 12 -30 c6 -16 17 -34 23 -40 7 -5 17
-26 23 -45 6 -19 25 -75 43 -125 36 -106 51 -164 46 -179 -4 -11 -19 32 -32
88 -11 53 -14 21 -4 -54 5 -41 18 -91 28 -110 26 -48 30 -147 18 -454 -6 -167
-32 -344 -57 -401 -5 -11 -19 -60 -30 -110 -34 -147 -69 -241 -147 -400 -41
-82 -65 -139 -53 -125 l20 25 -9 -25 c-5 -14 -18 -41 -29 -60 -12 -19 -30 -53
-41 -75 -24 -48 -50 -79 -75 -88 -17 -7 -17 -6 -5 10 13 16 12 17 -4 4 -10 -8
-16 -20 -13 -27 6 -16 -50 -91 -74 -99 -21 -7 -70 -65 -74 -87 -3 -22 -68 -98
-78 -92 -11 7 -39 -15 -33 -26 5 -9 -97 -92 -156 -128 -20 -12 -43 -30 -50
-39 -8 -10 -9 -14 -2 -10 6 4 14 3 17 -2 6 -9 -43 -47 -55 -44 -4 1 -17 -10
-30 -24 l-24 -26 38 22 c21 13 41 21 44 17 3 -3 22 9 42 26 119 103 196 175
289 271 58 59 109 107 114 107 9 0 -124 -150 -217 -244 -71 -72 -171 -156
-235 -199 -30 -20 -78 -52 -107 -71 -28 -19 -109 -65 -180 -102 -70 -37 -133
-71 -140 -76 -6 -5 -26 -10 -44 -10 -18 -1 -71 -20 -118 -44 -86 -42 -250 -95
-293 -93 -20 0 -19 2 7 11 17 6 37 17 46 25 19 16 133 53 165 53 12 0 84 30
160 67 76 36 166 74 199 83 41 11 59 21 58 30 -1 9 30 36 74 65 43 28 75 53
73 56 -3 3 2 14 10 24 18 23 12 20 -75 -41 -33 -23 -92 -58 -132 -77 -40 -20
-92 -49 -117 -66 -25 -17 -47 -31 -51 -31 -3 0 -63 -23 -133 -51 -158 -63
-207 -79 -253 -79 -20 0 -58 -7 -85 -15 -105 -32 -496 -83 -502 -66 -2 7 -37
11 -85 11 -126 0 -381 27 -476 51 -159 39 -402 129 -351 129 8 0 -47 29 -122
64 -76 35 -174 90 -220 121 -45 31 -114 74 -153 96 -57 31 -195 138 -146 113
19 -10 -135 137 -164 156 -26 17 -94 91 -95 102 0 5 -30 41 -67 80 -36 40 -72
87 -80 105 -7 18 -26 47 -41 65 -44 51 -66 86 -115 183 -25 50 -53 99 -61 110
-61 80 66 -168 150 -294 38 -57 74 -112 79 -121 6 -10 17 -25 24 -34 8 -9 11
-19 9 -22 -11 -11 -139 166 -198 273 -11 21 -29 52 -40 68 -11 17 -31 53 -44
80 -29 58 -33 42 -10 -30 23 -69 28 -80 79 -163 25 -41 45 -78 45 -82 0 -12
75 -123 93 -139 9 -7 14 -18 11 -25 -3 -7 3 -19 13 -27 16 -13 17 -12 4 4 -8
9 -12 20 -9 22 6 6 80 -83 82 -101 1 -8 8 -20 16 -27 11 -9 11 -8 0 8 -8 11
19 -13 60 -54 41 -40 74 -77 73 -82 -2 -4 23 -28 55 -52 57 -45 131 -118 102
-102 -13 8 -13 7 -1 -9 9 -11 17 -13 21 -6 4 6 23 -4 48 -26 23 -20 40 -39 37
-44 -3 -4 8 -16 23 -26 15 -10 33 -24 40 -31 8 -7 28 -21 45 -30 18 -9 65 -38
106 -66 79 -53 222 -123 361 -176 47 -18 105 -41 130 -51 25 -11 99 -27 165
-36 66 -9 162 -25 214 -35 51 -10 123 -19 160 -20 82 -1 194 -15 141 -18 -19
-1 -42 -6 -50 -11 -10 -7 19 -9 90 -9 68 1 96 4 80 9 -22 7 -20 8 15 10 22 1
45 1 50 -1 24 -7 112 -3 135 7 39 17 163 28 154 13 -5 -9 2 -10 27 -5 19 4 65
12 103 17 38 5 72 12 75 15 3 4 -9 4 -27 1 -68 -13 -19 12 55 28 43 10 102 26
131 37 41 15 56 17 67 8 10 -9 20 -8 42 4 l28 16 -27 -6 c-57 -13 -25 5 55 31
45 14 106 38 135 52 29 14 61 26 72 27 11 0 25 8 32 17 7 9 31 26 53 38 37 21
38 21 15 2 -14 -11 -29 -21 -34 -21 -5 0 -7 -3 -3 -6 9 -10 127 59 124 73 -2
13 64 78 98 95 17 9 17 7 -4 -15 l-24 -26 24 4 c23 4 41 21 101 93 17 20 33
30 39 26 7 -4 9 -3 6 3 -4 6 19 32 51 58 l57 48 -47 -46 c-27 -26 -48 -49 -48
-52 0 -12 32 12 86 65 31 30 59 55 63 55 3 0 39 32 79 71 70 70 90 100 55 87
-20 -8 29 58 68 92 l23 20 -18 -30 c-10 -16 8 -1 41 34 32 36 58 72 58 80 1 9
6 15 12 14 6 -1 24 15 40 35 41 51 158 248 189 319 14 32 41 91 60 131 37 80
39 87 22 76 -8 -5 -9 -2 -5 10 4 10 7 21 7 24 0 4 5 0 10 -8 8 -11 9 -7 4 14
-5 21 -4 27 5 22 9 -6 10 0 6 21 -5 21 -4 24 4 13 6 -8 11 -12 11 -9 0 23 54
264 70 316 11 36 20 80 20 98 0 18 7 52 15 75 9 26 14 72 13 119 -2 73 -2 74
-5 16 -4 -66 -23 -103 -23 -44 0 38 -8 419 -13 569 -1 52 -8 122 -14 155 -7
33 -17 91 -23 128 -8 51 -21 85 -50 131 -38 60 -75 145 -66 153 5 6 45 -64 52
-92 3 -14 10 -25 15 -25 10 0 -14 69 -35 102 -8 13 -17 34 -19 48 -6 30 -44
101 -106 195 -25 39 -44 76 -43 84 2 7 -1 10 -6 7 -8 -5 -102 124 -102 140 0
12 -67 102 -130 174 -79 90 -140 169 -140 182 0 14 -141 168 -154 168 -5 0 10
-20 34 -45 63 -64 43 -67 -28 -3 -122 109 -303 238 -403 287 -37 18 -111 62
-169 100 -8 6 31 -10 88 -35 57 -24 113 -53 124 -64 12 -11 28 -20 35 -20 7 0
23 -11 34 -24 12 -13 33 -27 47 -31 14 -3 42 -19 61 -34 20 -16 47 -34 61 -41
35 -17 -34 44 -74 66 -15 9 -49 31 -75 49 -96 68 -296 170 -456 231 -49 19
-100 39 -112 44 -97 41 -405 104 -584 120 -147 13 -149 13 -149 -4z m2327
-2248 c-3 -7 -5 -2 -5 12 0 14 2 19 5 13 2 -7 2 -19 0 -25z m10 -80 c-2 -13
-4 -5 -4 17 -1 22 1 32 4 23 2 -10 2 -28 0 -40z m24 -365 c-6 -54 -12 -114
-14 -133 -2 -19 -5 -2 -5 39 -2 68 16 206 25 197 3 -2 0 -48 -6 -103z m-96
-433 c-9 -28 -19 -50 -22 -50 -6 0 4 61 20 115 11 37 12 38 15 12 2 -15 -4
-50 -13 -77z m-41 -146 c-9 -27 -34 -87 -56 -134 -23 -47 -42 -94 -43 -105 -4
-32 -4 -33 -21 -50 -10 -9 -18 -27 -19 -39 -4 -37 -58 -134 -63 -113 -2 10 21
69 51 130 30 62 72 157 92 212 36 96 65 158 72 151 2 -2 -4 -25 -13 -52z m41
-51 c-4 -16 -8 -44 -10 -63 -4 -42 -30 -106 -47 -117 -7 -4 -21 -31 -30 -59
-20 -58 -112 -226 -133 -244 -8 -7 -15 -17 -15 -21 0 -16 -70 -112 -70 -98 0
8 -11 2 -25 -14 -14 -15 -25 -24 -25 -19 0 5 19 30 41 56 46 52 139 200 139
220 0 8 7 19 16 27 13 11 74 129 74 144 0 3 15 45 34 93 18 48 36 95 39 105
10 28 20 20 12 -10z m-425 -642 c-5 -11 -15 -23 -21 -27 -6 -3 -3 5 6 20 20
30 30 35 15 7z m-3765 -61 c27 -27 47 -50 44 -50 -3 0 -27 23 -54 50 -27 28
-47 50 -44 50 3 0 27 -22 54 -50z m3550 -160 c-3 -5 -11 -10 -16 -10 -6 0 -7
5 -4 10 3 6 11 10 16 10 6 0 7 -4 4 -10z m42 -78 c-15 -16 -24 -32 -20 -37 5
-4 2 -5 -5 -1 -11 6 -7 15 14 37 15 16 30 29 33 29 2 0 -7 -13 -22 -28z m-207
-76 c0 -2 -8 -10 -17 -17 -16 -13 -17 -12 -4 4 13 16 21 21 21 13z m-2975
-146 c3 -6 -1 -7 -9 -4 -18 7 -21 14 -7 14 6 0 13 -4 16 -10z m473 -202 c14
-12 34 -20 132 -55 25 -9 49 -22 53 -30 4 -7 15 -13 23 -13 8 0 34 -8 57 -19
23 -10 49 -21 57 -24 13 -5 12 -6 -1 -6 -23 -1 -301 99 -320 115 -8 8 -29 18
-45 24 -16 6 -35 19 -41 30 -12 18 -11 18 29 4 23 -8 48 -20 56 -26z m397
-158 c13 -5 14 -9 5 -9 -8 0 -24 4 -35 9 -13 5 -14 9 -5 9 8 0 24 -4 35 -9z
m340 -32 c80 -1 100 -3 75 -9 -45 -10 -236 -3 -275 11 -25 8 -20 9 30 5 33 -3
110 -6 170 -7z m704 -2 c-20 -20 -445 -61 -427 -41 4 4 71 11 150 15 79 5 155
13 168 19 24 9 118 15 109 7z"/>
<path d="M2210 4980 c-99 -7 -214 -30 -228 -46 -4 -4 4 -4 18 0 14 3 104 15
200 26 96 11 182 22 190 24 23 6 -65 4 -180 -4z"/>
<path d="M1700 4871 c-116 -39 -214 -79 -195 -80 6 -1 42 11 80 25 39 14 103
36 143 49 72 24 117 44 97 44 -5 0 -62 -17 -125 -38z"/>
<path d="M2650 4840 c0 -18 131 -35 148 -18 8 8 23 8 55 -1 24 -7 59 -11 78
-9 26 2 13 7 -56 21 -98 19 -225 23 -225 7z"/>
<path d="M2960 4780 c36 -10 76 -19 90 -19 40 1 -42 28 -103 34 l-52 5 65 -20z"/>
<path d="M1739 4767 c-22 -14 -48 -49 -74 -99 -35 -68 -54 -89 -150 -171 -106
-90 -195 -181 -195 -198 0 -14 -88 -54 -220 -100 -127 -44 -175 -73 -149 -90
31 -19 104 -9 184 26 61 26 94 35 138 35 31 0 57 -4 57 -8 0 -5 -28 -16 -62
-26 -75 -21 -217 -93 -277 -141 -50 -40 -52 -39 89 -20 58 8 118 15 133 15
l28 0 -4 -967 c-4 -1054 -2 -1017 -62 -1164 -25 -61 -75 -133 -124 -177 l-26
-24 45 7 c25 4 293 11 595 14 541 7 551 7 599 29 44 20 300 192 294 197 -2 1
-41 -4 -88 -12 -62 -11 -216 -16 -575 -20 l-490 -5 21 24 c30 32 49 73 69 143
13 49 18 137 25 465 11 507 28 1140 37 1373 5 135 9 177 19 177 7 0 17 -7 22
-16 9 -16 40 -25 56 -16 5 2 -6 11 -23 18 -40 17 -39 26 4 47 19 9 35 13 35 9
0 -5 14 -8 30 -8 35 0 40 13 8 18 -19 3 -12 10 42 46 42 28 56 42 40 38 -14
-3 -53 -8 -85 -11 -51 -5 -57 -4 -41 7 81 54 131 121 166 224 18 49 20 73 14
140 -6 76 -5 84 20 123 15 23 24 46 21 51 -4 6 -1 10 4 10 25 0 8 32 -24 46
-49 20 -87 18 -126 -9z"/>
<path d="M3153 4740 c21 -14 130 -50 135 -45 4 3 -85 38 -128 49 -21 6 -22 5
-7 -4z"/>
<path d="M3250 4740 c0 -9 39 -25 46 -18 2 3 -7 10 -21 16 -14 6 -25 7 -25 2z"/>
<path d="M1249 4669 l-24 -20 28 17 c15 9 27 18 27 20 0 8 -8 4 -31 -17z"/>
<path d="M3380 4671 c0 -5 46 -33 102 -61 95 -48 236 -129 262 -151 11 -9 82
-62 216 -161 36 -26 85 -62 110 -80 24 -18 72 -57 107 -86 68 -57 81 -60 34
-6 -16 18 -33 39 -38 46 -14 23 -146 133 -215 180 -37 25 -77 57 -90 70 -13
13 -16 15 -8 4 15 -19 14 -19 -20 1 -29 17 -82 48 -265 156 -11 7 -34 22 -52
34 -17 13 -40 23 -50 23 -10 0 -31 9 -48 20 -33 22 -45 25 -45 11z"/>
<path d="M3579 4597 c30 -17 68 -41 85 -51 17 -10 51 -30 76 -44 25 -13 53
-31 63 -40 9 -8 20 -13 23 -10 10 11 -263 178 -291 178 -5 0 14 -15 44 -33z"/>
<path d="M875 4410 c-10 -11 -13 -20 -8 -20 13 0 38 29 31 35 -3 3 -13 -4 -23
-15z"/>
<path d="M4291 4193 c8 -10 37 -44 66 -76 29 -31 67 -79 84 -105 18 -26 47
-64 66 -85 18 -20 33 -40 33 -45 1 -4 17 -25 36 -47 l35 -40 -24 50 c-14 28
-35 59 -47 70 -27 24 -110 139 -110 152 0 12 -131 143 -143 143 -5 0 -3 -8 4
-17z"/>
<path d="M4237 4048 c25 -34 138 -175 150 -188 30 -33 10 1 -37 61 -27 35 -50
68 -50 72 0 9 -58 67 -67 67 -3 0 -1 -6 4 -12z"/>
<path d="M4410 3827 c0 -4 17 -34 38 -65 22 -31 56 -90 77 -129 21 -42 42 -70
48 -66 6 4 8 0 4 -10 -3 -9 11 -52 32 -99 21 -46 41 -92 45 -102 3 -10 9 -17
12 -14 6 7 -42 135 -62 166 -8 12 -12 27 -9 32 9 14 -40 114 -62 127 -11 6
-34 35 -50 65 -32 56 -72 109 -73 95z"/>
<path d="M3065 3415 c-44 -7 -150 -16 -235 -20 -179 -7 -232 -20 -350 -81 -87
-45 -184 -114 -159 -114 8 0 61 7 119 15 58 8 118 15 133 15 l28 0 -4 -967
c-4 -1054 -2 -1017 -62 -1164 -25 -61 -75 -133 -124 -177 l-26 -24 45 7 c25 4
293 11 595 14 541 7 551 7 599 29 44 20 300 192 294 197 -2 1 -41 -4 -88 -12
-62 -11 -216 -16 -575 -20 l-490 -5 21 24 c30 32 49 73 69 143 13 49 18 137
25 465 11 506 28 1140 37 1371 l6 177 58 28 c74 35 199 114 179 112 -8 0 -51
-6 -95 -13z"/>
<path d="M4182 2875 c-18 -8 -61 -32 -94 -52 -34 -21 -79 -45 -102 -53 -37
-14 -44 -23 -90 -118 l-50 -102 -63 0 c-45 0 -65 4 -69 14 -4 10 -18 12 -52 8
-43 -5 -46 -4 -33 11 20 25 -5 23 -44 -3 -40 -26 -46 -25 -35 6 18 47 12 62
-13 32 -29 -36 -38 -35 -31 1 10 49 -12 42 -30 -10 -10 -27 -22 -49 -26 -49
-4 0 -12 17 -18 38 -9 34 -10 31 -11 -39 -1 -76 -1 -77 27 -85 15 -4 33 -6 41
-5 20 4 173 -62 178 -77 3 -7 -2 -21 -11 -31 -15 -16 -15 -21 -1 -55 9 -20 13
-48 10 -64 l-6 -27 18 24 c46 60 62 71 100 71 48 -1 147 -43 151 -65 2 -9 -3
-27 -12 -40 -20 -30 -20 -49 -1 -65 10 -9 15 -9 15 -1 0 6 -4 11 -10 11 -5 0
-10 6 -10 14 0 17 34 30 52 21 7 -4 5 0 -4 8 -24 20 -24 50 0 43 14 -5 18 -1
18 16 -1 13 -5 26 -10 29 -19 14 4 40 31 38 43 -4 121 12 134 27 6 8 17 14 25
14 14 0 124 108 124 122 0 5 -10 2 -22 -5 -13 -8 -60 -22 -106 -32 -79 -16
-119 -15 -108 4 3 4 -12 16 -34 26 -22 10 -40 21 -40 24 0 4 14 18 30 33 34
30 54 72 65 135 6 38 18 53 96 124 49 45 89 86 89 90 0 13 -31 10 -68 -6z
m-242 -580 c0 -8 -4 -15 -9 -15 -13 0 -22 16 -14 24 11 11 23 6 23 -9z"/>
<path d="M4951 2764 c0 -11 3 -14 6 -6 3 7 2 16 -1 19 -3 4 -6 -2 -5 -13z"/>
<path d="M4962 2550 c1 -109 3 -131 8 -90 10 72 10 178 0 210 -5 15 -8 -34 -8
-120z"/>
<path d="M16 2333 c9 -38 14 -42 14 -10 0 14 -5 29 -10 32 -7 4 -8 -3 -4 -22z"/>
<path d="M24 2221 c3 -30 11 -59 17 -65 8 -8 9 1 4 34 -12 72 -26 94 -21 31z"/>
<path d="M45 2015 c3 -27 13 -63 22 -80 8 -16 21 -50 28 -75 7 -25 16 -54 21
-64 5 -14 4 -17 -4 -12 -7 4 -12 1 -12 -9 0 -18 81 -228 86 -222 4 4 -31 115
-53 169 -9 20 -13 44 -9 53 3 8 -1 35 -8 58 -8 23 -22 78 -31 122 -21 96 -52
142 -40 60z"/>
<path d="M205 1689 c-4 -6 -5 -12 -2 -15 2 -3 7 2 10 11 7 17 1 20 -8 4z"/>
<path d="M201 1580 c0 -8 4 -22 9 -30 12 -18 12 -2 0 25 -6 13 -9 15 -9 5z"/>
<path d="M4515 1289 c-4 -6 -5 -12 -2 -15 2 -3 7 2 10 11 7 17 1 20 -8 4z"/>
<path d="M661 790 c35 -44 59 -60 59 -42 0 5 -21 27 -47 48 l-48 38 36 -44z"/>
<path d="M840 625 c13 -14 26 -25 28 -25 3 0 -5 11 -18 25 -13 14 -26 25 -28
25 -3 0 5 -11 18 -25z"/>
<path d="M3875 584 l-30 -26 33 22 c17 12 32 23 32 26 0 7 -4 5 -35 -22z"/>
<path d="M3830 490 c-9 -6 -10 -10 -3 -10 6 0 15 5 18 10 8 12 4 12 -15 0z"/>
<path d="M3722 429 c-29 -17 -51 -34 -48 -36 6 -6 92 43 101 57 9 14 6 13 -53
-21z"/>
<path d="M3444 274 c-18 -14 -18 -15 4 -4 12 6 22 13 22 15 0 8 -5 6 -26 -11z"/>
<path d="M3205 115 c-61 -24 -56 -35 6 -13 35 12 81 39 64 37 -6 0 -37 -11
-70 -24z"/>
<path d="M3118 83 c7 -3 16 -2 19 1 4 3 -2 6 -13 5 -11 0 -14 -3 -6 -6z"/>
</g>
</svg>
